<?xml version="1.0" encoding="UTF-8" standalone="no"?>
<svg
   version="1.2"
   viewBox="0 0 399.99863 141.536"
   width="399.99863"
   height="141.536"
   id="svg9"
   sodipodi:docname="universidad_americana_2020.svg"
   inkscape:version="1.1.2 (0a00cf5339, 2022-02-04)"
   xmlns:inkscape="http://www.inkscape.org/namespaces/inkscape"
   xmlns:sodipodi="http://sodipodi.sourceforge.net/DTD/sodipodi-0.dtd"
   xmlns="http://www.w3.org/2000/svg"
   xmlns:svg="http://www.w3.org/2000/svg"
   xmlns:rdf="http://www.w3.org/1999/02/22-rdf-syntax-ns#"
   xmlns:cc="http://creativecommons.org/ns#"
   xmlns:dc="http://purl.org/dc/elements/1.1/">
  <defs
     id="defs13" />
  <sodipodi:namedview
     id="namedview11"
     pagecolor="#ffffff"
     bordercolor="#666666"
     borderopacity="1.0"
     inkscape:pageshadow="2"
     inkscape:pageopacity="0.0"
     inkscape:pagecheckerboard="0"
     showgrid="false"
     inkscape:zoom="0.86372361"
     inkscape:cx="326.49333"
     inkscape:cy="85.675556"
     inkscape:window-width="1920"
     inkscape:window-height="1011"
     inkscape:window-x="0"
     inkscape:window-y="0"
     inkscape:window-maximized="1"
     inkscape:current-layer="svg9" />
  <title
     id="title2">logo-uam-2</title>
  <style
     id="style4">
		.s0 { fill: #009caa } 
	</style>
  <g
     id="Background"
     transform="matrix(0.31055793,0,0,0.31055793,-32.298025,-30.772409)">
    <path
       id="Path 0"
       fill-rule="evenodd"
       class="s0"
       d="m 872.8,99.1 c 14.2,-0.1 25.2,0.4 33.5,1.5 6.7,0.8 16.9,2.6 22.7,3.9 5.8,1.3 15.7,4 22,6.1 6.3,2 15.8,5.5 21,7.7 5.2,2.1 13.3,5.8 18,8.2 4.7,2.3 12.6,6.6 17.5,9.5 5,2.9 12.4,7.6 16.5,10.3 4.1,2.8 12,8.4 17.5,12.5 5.5,4.2 15.6,12.3 22.5,18.1 6.8,5.8 19,16.9 41.5,38.8 l 13.8,-11.6 c 7.6,-6.4 20.9,-16.6 29.5,-22.8 8.6,-6.2 22.2,-15.2 30.2,-20 8,-4.8 21.3,-12.2 29.5,-16.3 8.3,-4.2 20.6,-10 27.5,-12.9 6.9,-2.9 19.5,-7.7 28,-10.6 8.5,-2.9 21.8,-6.8 29.5,-8.8 7.7,-2 20.1,-4.7 27.5,-6.1 7.4,-1.4 19.6,-3.2 27,-4 7.4,-0.8 20.4,-1.9 44,-3.1 V 548 h -67 V 173.5 l -7.7,0.7 c -4.3,0.4 -13.2,2.1 -19.8,3.8 -6.6,1.7 -18.3,5.6 -26,8.7 -7.7,3 -19.2,8.1 -25.5,11.3 -6.3,3.2 -17.1,9 -24,13 -6.9,4 -18.3,11.1 -25.5,15.8 -7.2,4.7 -20,13.9 -28.5,20.3 -8.5,6.4 -21.3,16.8 -28.5,23.1 -7.2,6.3 -17.6,16.4 -33.5,33.3 l -4.2,-5 c -2.3,-2.7 -8.3,-9.2 -13.3,-14.3 -4.9,-5.2 -13.4,-13.3 -18.9,-18 -5.4,-4.8 -13.9,-12 -19,-16 -5,-4 -14,-10.8 -20.1,-15.1 -6,-4.3 -16.8,-11.5 -24,-16 -7.1,-4.5 -21.8,-12.6 -32.5,-17.9 -10.7,-5.4 -25.2,-11.9 -32.2,-14.5 -7.1,-2.6 -17.2,-5.8 -22.5,-7.2 -5.4,-1.4 -13.8,-3.2 -18.8,-4 -4.9,-0.8 -11.6,-1.5 -20.5,-1.5 v 373 h -65 l 0.5,-103 H 516 l -0.9,2.3 c -0.5,1.2 -2,7.4 -3.5,13.7 -1.4,6.3 -3.2,15.6 -4.1,20.5 -0.8,4.9 -1.9,13.1 -2.5,18 -0.6,4.9 -1.4,17.9 -2.5,48.5 H 435 v -11.7 c 0,-6.5 0.7,-18.8 1.5,-27.3 0.8,-8.5 2.4,-21 3.5,-27.7 1.1,-6.8 3.1,-17.6 4.5,-24 1.4,-6.5 4.1,-17.4 6,-24.3 1.9,-6.9 5.5,-18.6 8,-26 2.6,-7.4 6.9,-19.1 9.7,-26 2.8,-6.9 8.6,-19.7 12.8,-28.5 4.3,-8.8 11.1,-21.6 15,-28.5 4,-6.9 10.6,-17.7 14.7,-24 4.2,-6.3 11.4,-16.7 16.1,-23 4.7,-6.3 11.7,-15.3 15.6,-20 3.9,-4.7 11.8,-13.6 17.6,-19.9 5.8,-6.3 15.9,-16.4 22.5,-22.5 6.6,-6.1 16.5,-14.7 22,-19.2 5.5,-4.5 15.9,-12.3 23,-17.4 7.2,-5 19.1,-12.8 26.5,-17.3 7.4,-4.4 20.5,-11.5 29,-15.8 8.5,-4.3 21.6,-10.2 29,-13.2 7.4,-3 19.1,-7.4 26,-9.7 6.9,-2.3 19.3,-5.9 27.5,-8 8.3,-2.2 20.9,-5 28,-6.4 7.2,-1.3 18.9,-3.2 26,-4.1 7.2,-0.9 17.3,-2 22.5,-2.4 5.2,-0.5 19.1,-0.9 30.8,-1 z M 811,173.8 c -1.9,0.2 -10.1,1.6 -18.2,3.3 -8.2,1.6 -22.1,5.3 -31,8.3 -9,2.9 -22.6,8.1 -30.3,11.5 -7.7,3.5 -20.1,9.6 -27.5,13.8 -7.4,4.1 -19.3,11.3 -26.5,16 -7.1,4.7 -17.5,12 -23,16.2 -5.5,4.1 -14.7,11.6 -20.5,16.6 -5.8,4.9 -15.2,13.5 -21,19.1 -5.8,5.6 -15.7,16.1 -22,23.4 -6.3,7.3 -15.3,18.3 -20,24.5 -4.7,6.3 -11.4,16 -15,21.7 -3.5,5.7 -9.5,16.4 -13.3,23.8 l -7,13.5 c 215.9,0.4 278.7,0.4 278.9,0.3 0.2,-0.2 0.2,-48 0.1,-106.3 l -0.2,-106 z" />
    <path
       id="Path 1"
       class="s0"
       d="m 104,100 h 75 l 0.5,329.5 2.3,7 c 1.3,3.9 3.8,9.5 5.5,12.5 1.8,3 5.7,8.1 8.7,11.4 3,3.2 8.2,7.8 11.5,10.1 3.3,2.4 8.4,5.4 11.3,6.9 2.8,1.4 9.1,3.9 13.9,5.6 4.9,1.6 13.1,3.6 18.3,4.4 5.2,0.9 14.4,1.6 20.5,1.6 6.1,0 15.3,-0.7 20.5,-1.5 5.2,-0.9 13.8,-3 19,-4.8 5.2,-1.8 13,-5.2 17.4,-7.7 4.3,-2.5 10.6,-7 14,-10.1 3.3,-3.1 8,-8.5 10.3,-12 2.4,-3.5 5.5,-9.8 9.8,-21.4 l 0.6,-111 c 0.4,-61.1 0.7,-135.6 0.9,-220.5 h 73.9 l -0.4,335.5 -2.7,10 c -1.5,5.5 -4.1,13.4 -5.8,17.5 -1.7,4.1 -4.6,10.2 -6.4,13.5 -1.9,3.3 -6.1,9.6 -9.3,14 -3.3,4.4 -10.4,12.3 -15.9,17.5 -5.5,5.2 -14.2,12.4 -19.4,15.8 -5.2,3.5 -14.4,8.8 -20.5,11.7 -6.1,3 -16.4,7.2 -23,9.4 -6.6,2.1 -16.7,4.8 -22.5,6 -5.8,1.1 -14.6,2.6 -19.5,3.2 -5.5,0.7 -16.3,0.9 -28,0.6 -14.1,-0.4 -21.6,-1.1 -29,-2.7 -5.5,-1.1 -15.4,-3.9 -22,-6.1 -6.6,-2.2 -16.5,-6.2 -22,-8.9 -5.5,-2.7 -14.3,-7.7 -19.5,-11.1 -5.2,-3.4 -12.7,-8.7 -16.5,-11.9 -3.9,-3.1 -10.8,-9.7 -15.5,-14.7 -4.7,-4.9 -10.8,-12.3 -13.6,-16.4 -2.9,-4.1 -7.2,-11.5 -9.7,-16.4 -2.5,-4.9 -5.5,-11.8 -6.6,-15.3 -1.2,-3.4 -2.9,-9.2 -3.8,-13 -1.6,-6.1 -1.7,-20.5 -2,-172.5 z" />
  </g>
  <metadata
     id="metadata830">
    <rdf:RDF>
      <cc:Work
         rdf:about="">
        <dc:title>logo-uam-2</dc:title>
      </cc:Work>
    </rdf:RDF>
  </metadata>
</svg>
